<svg xmlns="http://www.w3.org/2000/svg" xmlns:xlink="http://www.w3.org/1999/xlink" width="850" zoomAndPan="magnify" viewBox="0 0 637.5 112.499997" height="150" preserveAspectRatio="xMidYMid meet" version="1.0"><defs><g/><clipPath id="022d648976"><path d="M 54 0.113281 L 83 0.113281 L 83 23 L 54 23 Z M 54 0.113281 " clip-rule="nonzero"/></clipPath><clipPath id="16a7113dd6"><rect x="0" width="176" y="0" height="30"/></clipPath><clipPath id="e89ca2f3c5"><path d="M 1.160156 53 L 136 53 L 136 59 L 1.160156 59 Z M 1.160156 53 " clip-rule="nonzero"/></clipPath><clipPath id="80a90eb6e6"><path d="M 506 53 L 635.839844 53 L 635.839844 59 L 506 59 Z M 506 53 " clip-rule="nonzero"/></clipPath></defs><g transform="matrix(1, 0, 0, 1, 233, 46)"><g clip-path="url(#16a7113dd6)"><g fill="#ffffff" fill-opacity="1"><g transform="translate(0.517758, 21.713632)"><g><path d="M 1.4375 0 L 1.4375 -20.421875 L 21.984375 -20.421875 L 21.984375 -16.234375 L 7.203125 -16.234375 L 7.203125 -11.375 L 20.296875 -11.375 L 20.296875 -7.859375 L 7.203125 -7.859375 L 7.203125 0 Z M 1.4375 0 "/></g></g></g><g fill="#ffffff" fill-opacity="1"><g transform="translate(24.088773, 21.713632)"><g><path d="M 0.0625 0 L 10.5 -20.421875 L 17.171875 -20.421875 L 27.40625 0 L 21.421875 0 L 19.46875 -4.015625 L 8 -4.015625 L 6.046875 0 Z M 9.296875 -7.484375 L 18.171875 -7.484375 L 13.796875 -16.6875 L 13.734375 -16.6875 Z M 9.296875 -7.484375 "/></g></g></g><g clip-path="url(#022d648976)"><g fill="#ffffff" fill-opacity="1"><g transform="translate(53.280142, 21.713632)"><g><path d="M 15.515625 0.578125 C 12.546875 0.578125 9.976562 0.144531 7.8125 -0.71875 C 5.644531 -1.59375 3.96875 -2.832031 2.78125 -4.4375 C 1.59375 -6.050781 1 -7.972656 1 -10.203125 C 1 -12.398438 1.550781 -14.304688 2.65625 -15.921875 C 3.769531 -17.535156 5.347656 -18.78125 7.390625 -19.65625 C 9.441406 -20.539062 11.851562 -20.984375 14.625 -20.984375 C 16.6875 -20.984375 18.570312 -20.691406 20.28125 -20.109375 C 22 -19.523438 23.441406 -18.695312 24.609375 -17.625 C 25.785156 -16.5625 26.613281 -15.289062 27.09375 -13.8125 L 21.875 -12.59375 C 21.457031 -13.882812 20.609375 -14.90625 19.328125 -15.65625 C 18.046875 -16.414062 16.523438 -16.796875 14.765625 -16.796875 C 13.140625 -16.796875 11.726562 -16.53125 10.53125 -16 C 9.34375 -15.46875 8.414062 -14.707031 7.75 -13.71875 C 7.09375 -12.738281 6.765625 -11.566406 6.765625 -10.203125 C 6.785156 -8.867188 7.15625 -7.707031 7.875 -6.71875 C 8.601562 -5.738281 9.628906 -4.972656 10.953125 -4.421875 C 12.273438 -3.878906 13.832031 -3.609375 15.625 -3.609375 C 17.726562 -3.609375 19.507812 -4.046875 20.96875 -4.921875 C 22.4375 -5.804688 23.367188 -6.992188 23.765625 -8.484375 L 29.109375 -7.453125 C 28.703125 -5.804688 27.875 -4.378906 26.625 -3.171875 C 25.375 -1.972656 23.800781 -1.046875 21.90625 -0.390625 C 20.007812 0.253906 17.878906 0.578125 15.515625 0.578125 Z M 15.515625 0.578125 "/></g></g></g></g><g fill="#ffffff" fill-opacity="1"><g transform="translate(84.679479, 21.713632)"><g><path d="M 0.0625 0 L 10.5 -20.421875 L 17.171875 -20.421875 L 27.40625 0 L 21.421875 0 L 19.46875 -4.015625 L 8 -4.015625 L 6.046875 0 Z M 9.296875 -7.484375 L 18.171875 -7.484375 L 13.796875 -16.6875 L 13.734375 -16.6875 Z M 9.296875 -7.484375 "/></g></g></g><g fill="#ffffff" fill-opacity="1"><g transform="translate(115.591352, 21.713632)"><g><path d="M 1.4375 0 L 1.4375 -20.421875 L 15.109375 -20.421875 C 19.046875 -20.421875 22.066406 -19.539062 24.171875 -17.78125 C 26.273438 -16.019531 27.328125 -13.492188 27.328125 -10.203125 C 27.328125 -6.921875 26.273438 -4.398438 24.171875 -2.640625 C 22.066406 -0.878906 19.046875 0 15.109375 0 Z M 7.046875 -4.046875 L 14.390625 -4.046875 C 16.742188 -4.046875 18.550781 -4.578125 19.8125 -5.640625 C 21.070312 -6.710938 21.703125 -8.234375 21.703125 -10.203125 C 21.703125 -12.191406 21.070312 -13.71875 19.8125 -14.78125 C 18.550781 -15.84375 16.742188 -16.375 14.390625 -16.375 L 7.046875 -16.375 Z M 7.046875 -4.046875 "/></g></g></g><g fill="#ffffff" fill-opacity="1"><g transform="translate(147.334783, 21.713632)"><g><path d="M 1.4375 0 L 1.4375 -20.421875 L 22.390625 -20.421875 L 22.390625 -16.65625 L 7.03125 -16.65625 L 7.03125 -12.09375 L 21.25 -12.09375 L 21.25 -8.796875 L 7.03125 -8.796875 L 7.03125 -3.75 L 22.671875 -3.75 L 22.671875 0 Z M 1.4375 0 "/></g></g></g></g></g><g clip-path="url(#e89ca2f3c5)"><path stroke-linecap="butt" transform="matrix(0.746681, 0, 0, 0.746681, 1.161514, 53.458276)" fill="none" stroke-linejoin="miter" d="M -0.00181803 3.498195 L 176.958287 3.498195 " stroke="#000000" stroke-width="7" stroke-opacity="1" stroke-miterlimit="4"/></g><g clip-path="url(#80a90eb6e6)"><path stroke-linecap="butt" transform="matrix(0.746681, 0, 0, 0.746681, 509.238398, 53.387717)" fill="none" stroke-linejoin="miter" d="M -0.000156387 3.498524 L 176.959949 3.498524 " stroke="#000000" stroke-width="7" stroke-opacity="1" stroke-miterlimit="4"/></g><path stroke-linecap="butt" transform="matrix(0.348336, -0.66045, 0.66045, 0.348336, 310.448222, 72.220553)" fill="none" stroke-linejoin="miter" d="M -0.00124668 1.001722 L 50.543415 1.000093 " stroke="#000000" stroke-width="2" stroke-opacity="1" stroke-miterlimit="4"/><path stroke-linecap="round" transform="matrix(0.348336, -0.66045, 0.66045, 0.348336, 310.448222, 72.220553)" fill-opacity="1" fill="#000000" fill-rule="nonzero" stroke-linejoin="round" d="M 51.042256 -2.001431 L 55.043468 0.998388 L 51.0438 4.000996 Z M 51.042256 -2.001431 " stroke="#000000" stroke-width="2" stroke-opacity="1" stroke-miterlimit="4"/></svg>